<?xml version="1.0" encoding="utf-8"?>
<!-- Generator: Adobe Illustrator 25.2.1, SVG Export Plug-In . SVG Version: 6.00 Build 0)  -->
<svg version="1.1" id="Layer_1" xmlns="http://www.w3.org/2000/svg" xmlns:xlink="http://www.w3.org/1999/xlink" x="0px" y="0px"
	 viewBox="0 0 855 615" style="enable-background:new 0 0 855 615;" xml:space="preserve">
<style type="text/css">
	.st0{fill:#316F84;stroke:#A62D2D;stroke-width:3;stroke-miterlimit:10;}
</style>
<g>
	<path class="st0" d="M2.78,285.74C2.78,129.59,193.16,3,428,3s425.22,126.59,425.22,282.74H2.78z"/>
	<path class="st0" d="M842.22,425.99H13.78c-6.05,0-11-4.95-11-11v-75.96c0-6.05,4.95-11,11-11h828.44c6.05,0,11,4.95,11,11v75.96
		C853.22,421.04,848.27,425.99,842.22,425.99z"/>
	<path class="st0" d="M841.51,613H14.49c-6.46,0-11.7-5.24-11.7-11.7V479.1c0-4.74,3.84-8.59,8.59-8.59h833.26
		c4.74,0,8.59,3.84,8.59,8.59V601.3C853.22,607.76,847.98,613,841.51,613z"/>
</g>
</svg>
